# xmcd
#
# Track frame offsets:
#  150
#  11091
#  41273
#  54363
#  79988
#  90188
#  116543
#  122113
#  133393
#  143368
#  156234
#  166749
#  180726
#  196386
#  212671
#  223151
#
# Disc length: 3268 seconds
#
# Revision: 0
# Processed by: cddbd v1.5.1PL2 Copyright (c) Steve Scherf et al.
# Submitted via: Collectorz.com_Music_Collector 6.11
#
DISCID=d80cc210
DTITLE=Clapton, Eric - Big Boss Man CD1
DYEAR=2000
DGENRE=Blues
TTITLE0=Boom, Boom (Out Goes The Light)
TTITLE1=Smekestack Lightning
TTITLE2=You Can't Judge A Book By Its Cover
TTITLE3=Take It Easy Baby
TTITLE4=Let It Rock
TTITLE5=I Wish You Would
TTITLE6=Choker
TTITLE7=Snake Drive
TTITLE8=Got To Hurry
TTITLE9=Freight Loader
TTITLE10=A Certain Girl
TTITLE11=Draggin' My Tail
TTITLE12=Louise (Louise Blues)
TTITLE13=Early In The Morning
TTITLE14=Pound And Stomps
TTITLE15=The First Time I Met The Blues
EXTD=
EXTT0=
EXTT1=
EXTT2=
EXTT3=
EXTT4=
EXTT5=
EXTT6=
EXTT7=
EXTT8=
EXTT9=
EXTT10=
EXTT11=
EXTT12=
EXTT13=
EXTT14=
EXTT15=
PLAYORDER=
